<svg xmlns="http://www.w3.org/2000/svg" width="24.164" height="24.164" viewBox="0 0 24.164 24.164">
  <path id="social-1_square-twitter" d="M0,0V24.164H24.164V0ZM16.915,9.59v.3a6.99,6.99,0,0,1-7.023,7.023,6.379,6.379,0,0,1-3.776-1.133h.6a4.954,4.954,0,0,0,3.1-1.057,2.6,2.6,0,0,1-2.341-1.737c.151,0,.3.076.453.076a2.091,2.091,0,0,0,.68-.076,2.438,2.438,0,0,1-1.963-2.416h0a2.5,2.5,0,0,0,1.133.3A2.478,2.478,0,0,1,6.645,8.835a3.557,3.557,0,0,1,.3-1.284,6.82,6.82,0,0,0,5.135,2.567,1.285,1.285,0,0,1-.076-.529A2.514,2.514,0,0,1,14.5,7.1a2.637,2.637,0,0,1,1.812.755,4.068,4.068,0,0,0,1.586-.6,2.41,2.41,0,0,1-1.057,1.359,7.965,7.965,0,0,0,1.435-.378A5.767,5.767,0,0,1,16.915,9.59Z" fill="#fff"/>
</svg>
